<svg width="58" height="64" fill="none" xmlns="http://www.w3.org/2000/svg">
  <g clip-path="url(#a)" fill="#fff">
    <path d="m30.224 34.758.024-.015c.337-.33.924-.243 1.315.008.157.101.298.211.431.336l.11.102.172-.274c.438-.69.893-1.402 1.425-2.044l.07-.086-.086-.078a3.507 3.507 0 0 0-3.915-.658l-.015-.963h-2.82l-.007.117c0 .032-.133 3.36-.25 6.656-.236 6.727-.189 7.596-.126 7.658l.04.04h.054c.117 0 3.203.039 3.234.039h.125l-.172-10.509a1.86 1.86 0 0 1 .391-.329Z" />
    <path d="M34.03 40.562c.024 1.683.314 3.453 1.379 4.808a4.844 4.844 0 0 0 4.15 1.808c1.496-.125 2.85-.978 3.649-2.223-.29-.173-.587-.337-.885-.494-.462-.258-.885-.587-1.323-.885-.603.8-1.707 1.073-2.608.525-1.026-.626-1.096-1.934-1.096-3.007v-2.2l1.715-.024v-2.216l-1.707-.078.023-3.68.024-3.837c-.979-.016-1.95-.055-2.929-.07-.07 1.973-.14 3.539-.22 5.52-.023.65-.054 1.3-.085 1.95l-2.694-.095-.125 2.585 2.725-.024c.008.54 0 1.089.008 1.637Z" />
    <path d="M48.69 38.071c-.565-2.051-1.465-4.416-3.665-5.176-.76-.258-1.59-.258-2.318.032l-.07-6.398h-2.624c.04.126-.125 16.233-.125 16.233l2.952.078-.086-6.546c1.018-.4 2.224.36 2.772 1.253.775 1.268.806 2.81 1.104 4.236.517 2.45 2.294 4.463 4.737 5.066.36-1.01.705-2.02.908-3.07-2.364-.782-2.999-3.578-3.586-5.708ZM25.518 34.29c-.047-1.715-.352-3.58-1.598-4.855-1.096-1.128-2.771-1.66-4.314-1.347-1.7.344-3.093 1.691-3.57 3.335a.233.233 0 0 0-.056.04 17.93 17.93 0 0 1 2.146 1.135c.352-.924 1.316-1.55 2.357-1.37 1.503.258 2.005 1.855 2.177 3.171.055.438.078.87.078 1.308-1.683-1.12-4.017-1.097-5.458.517-1.675 1.879-.908 4.745 1.175 5.959 1.05.61 2.294.775 3.484.602-.015.259-.015.517-.015.776.008.79.102 1.581.305 2.349 1.026-.298 2.052-.619 3.093-.846-.72-3.524.29-7.204.196-10.775Zm-3.265 5.716c-1.058.03-2.85-.282-2.467-1.473.204-.642.916-.83 1.511-.68.407.101.744.344 1.026.641.031.04.055.07.086.102.016.016.032.031.047.055-.055.454-.133.9-.203 1.355Z" />
    <path d="M10.296 45.807c1.379.713 3.046.815 4.48.196a5.394 5.394 0 0 0 2.897-3.07c-.408-.218-.838-.406-1.253-.61-.611-.29-1.198-.626-1.81-.916-.351.838-1.346 1.245-2.239.963-.986-.305-1.605-1.198-1.848-2.161 2.209-.274 4.37-1.128 5.38-3.234.548-1.136.572-2.514-.016-3.641-.626-1.206-1.942-1.856-3.28-1.778-3.227.18-4.715 3.555-5.2 6.304-.51 2.897-.008 6.46 2.89 7.947Zm.768-9.811c.18-.54.376-1.175.877-1.503.5-.33 1.065-.15 1.253.422.188.596-.212 1.151-.705 1.457-.501.32-1.104.407-1.692.438.087-.266.173-.54.267-.814Zm5.434 11.613c-2.576-.94-5.505-.681-7.964.43H8.52c.211 1.112.47 2.224.665 3.336a11.8 11.8 0 0 1 1.88-.4c-.102 3.454-.212 6.9-.314 10.353v.03c.752.181 1.472.51 2.255.612.917.117 1.911.164 2.827.047a8.223 8.223 0 0 0 2.788-.917 7.36 7.36 0 0 0 2.975-3.578 7.16 7.16 0 0 0-.383-6.014c-.971-1.793-2.71-3.163-4.714-3.9Zm.07 9.725c-.58.462-1.26.72-1.989.861l-.211-6.984c1.308.415 2.53 1.268 3.038 2.482.51 1.237.282 2.748-.838 3.641Z" />
    <path d="M32.637 51.626c-.415-1.582-1.269-2.968-2.576-3.962-1.222-.924-2.757-1.433-4.292-1.363a6.925 6.925 0 0 0-4.627 2.06c.783.822 1.581 1.629 2.31 2.49.83-.501 1.738-.846 2.725-.807 1.284.055 2.247.846 2.787 1.974.126.258.22.524.298.79-2.263-.76-4.941-.11-6.069 2.217-.58 1.182-.58 2.544.07 3.696.635 1.12 1.794 1.941 3.047 2.216 1.354.29 2.748.015 3.962-.611a15.857 15.857 0 0 0 1.276 3.03c1.253-.384 2.475-.9 3.728-1.284-2.804-2.67-1.747-7.055-2.64-10.446Zm-4.683 5.951c-.619-.07-1.3-.524-1.182-1.23.117-.727 1.143-.915 1.746-.806.43.079.814.298 1.104.603.016.353.04.713.07 1.065-.563.227-1.143.43-1.738.368Zm16.546.344a9.7 9.7 0 0 0 .782-1.315c1.214-2.436 1.59-7.243 1.559-9.93-.595.087-1.19.126-1.794.18-.673.071-1.346.173-2.02.26.047 1.174.055 4.4-.681 5.355-.689.893-1.981 1.449-3.085 1.08-1.143-.383-1.856-1.44-2.13-2.575-.274-1.143-.11-2.326.172-3.461-.524-.15-3.116-.666-3.86-.854-.259 3.876-.259 6.257 1.793 8.386 1.785 1.849 4.479 2.381 6.89 1.684a5.097 5.097 0 0 1-.281.673 9.192 9.192 0 0 0-2.663 0c-1.3.196-2.78.854-2.85 2.365-.07 1.441 1.324 2.068 2.569 1.887a5.664 5.664 0 0 0 1.879-.626c.047-.023.094-.04.133-.063a8.392 8.392 0 0 0 1.59-.955 5.483 5.483 0 0 1 2.067 2.012c.61-.266 1.23-.516 1.84-.79.627-.282 1.23-.666 1.856-.964a9.18 9.18 0 0 0-3.767-2.349Zm-4.777 1.84c-.149.087-.979.423-.783-.117.11-.29.595-.298.846-.305.172-.008.352 0 .524.007-.188.157-.384.29-.587.415ZM11.887 6.89a1.321 1.321 0 0 1 1.01-.422 1.33 1.33 0 0 1 1.002.524c.509.65.54 1.582.572 2.404.008.118.008.227.015.345a40.95 40.95 0 0 1-.14 5.865l-.008.086h.086c.352 0 .72.031 1.065.055.203.015.407.03.61.039l.087.008v-.087c.007-1.519.015-2.897.007-4.29 0-.283 0-.58.008-.862.016-1.034.032-2.106-.196-3.109l.024-.062a.752.752 0 0 1 .391-.501c.251-.126.572-.134.87-.016.556.22.892.736 1.127 1.159.493.9.744 1.926.995 2.92l.062.259c.439 1.754 1.042 3.712 2.655 4.777l.063.039.422-.58.564-.775.047-.07-.07-.047c-1.488-1.026-1.927-2.812-2.35-4.542-.195-.799-.399-1.629-.704-2.35-.415-.986-1.19-2.23-2.53-2.575-.877-.228-1.777.054-2.302.712-.407-.517-.924-.87-1.503-1.002a2.614 2.614 0 0 0-1.88.258l-.007-1.033h-1.582l-.493 12.105v.087l2.137.062-.054-9.38ZM32.48 9.827c.33-.031.659-.094.972-.18.313 1.973.728 4.04 2.145 5.544 1.12 1.182 2.913 1.777 4.417 1.12-.188-.462-.376-.916-.548-1.386-1.269.18-2.514-.517-3.273-1.559-.924-1.268-1.183-2.85-1.324-4.377a5.21 5.21 0 0 0 1.417-1.362c1.003-1.441 1.128-3.36.455-4.957-.439.141-.862.33-1.308.447.462 1.198.376 2.568-.329 3.664a4.03 4.03 0 0 1-2.623 1.754L32.512 0h-1.15l-.33 15.254h1.418l.03-5.427Zm-6.757-5.67c1.159 0 2.067.893 2.427 1.942.313.924.266 1.903.102 2.85-.885-.688-1.997-1.127-3.132-.947-1.128.172-2.216.987-2.49 2.13-.282 1.159.329 2.373 1.268 3.054.995.712 2.279.783 3.446.509 0 .023-.008.047-.008.07a15.474 15.474 0 0 0 .242 3.986c.525-.11 1.05-.204 1.574-.298-.618-3.382.784-6.71.65-10.093-.055-1.362-.282-3.062-1.425-3.978-.986-.783-2.38-.94-3.586-.72a5.486 5.486 0 0 0-3.344 2.051c.43.298.862.595 1.285.9.853-.743 1.824-1.463 2.99-1.456Zm1.8 8.073c-.688.18-1.417.29-2.098.04-.728-.259-1.417-1.08-1.034-1.887.29-.619 1.073-.807 1.7-.744.697.07 1.339.43 1.785.963-.133.54-.25 1.08-.352 1.628Z" />
    <path d="M40.264 14.158c1.167.571 2.623.5 3.712-.212.94-.618 1.535-1.628 1.676-2.725-.533-.008-1.065-.023-1.606-.023 0 .642-.375 1.253-.916 1.597-.634.407-1.448.392-2.122.079-1.206-.556-1.754-1.817-1.785-3.078 2.286.047 4.98-.203 6.147-2.427.493-.94.58-2.138.008-3.07-.548-.893-1.614-1.386-2.647-1.378-2.631.031-4.142 2.678-4.675 4.933-.532 2.279-.11 5.16 2.208 6.304ZM40.178 6.5c.368-.682.799-1.402 1.465-1.848.673-.455 1.69-.572 2.247.133.415.524.454 1.307.149 1.902-.83 1.645-2.937 1.59-4.55 1.418a9.097 9.097 0 0 1 .69-1.606ZM23.577 18.965c.172-.133.383-.235.595-.282.055-.007.11-.023.172-.023a.819.819 0 0 1 .415.008c.141.023.274.062.392.125.297-.22.595-.446.869-.697-.329-.517-.932-.79-1.55-.767-.525.015-.987.211-1.41.493l-.008-.767H21.69l-.11 9.976 1.527-.024-.04-7.611c.15-.172.322-.313.51-.43ZM11.66 30.17l2.403-11.041-1.472-.055-1.809 8.504-1.448-9.733-1.559-.024L9.42 30.225l2.24-.055Zm-4.362-4.8c-.462.211-.94.4-1.426.54.666 1.378-.86 2.71-2.192 1.942-1.05-.61-1.652-1.95-1.864-3.148a7.253 7.253 0 0 0 2.788-.814c1.05-.548 2.106-1.41 2.6-2.514.454-1.01.313-2.177-.533-2.936-.877-.799-2.153-.9-3.226-.478-2.232.877-3.485 3.524-3.453 5.81a6.71 6.71 0 0 0 .994 3.407c.603.986 1.527 1.996 2.686 2.294 1.128.29 2.412-.102 3.148-1.002.72-.87.87-2.076.478-3.101Zm-4.464-5.02c.423-.58 1.026-1.088 1.77-1.127.799-.047 1.472.618 1.221 1.425-.242.767-1.12 1.276-1.8 1.605a5.747 5.747 0 0 1-2.217.556 5.651 5.651 0 0 1 1.026-2.459Zm16.961 1.246c.478-.86.728-1.91.313-2.842-.368-.814-1.198-1.269-2.082-1.198-2.216.172-2.976 2.795-3.242 4.612-.259 1.785-.345 4.51 1.629 5.403.908.407 2.004.157 2.732-.501.744-.674 1.01-1.7.909-2.678-.392.102-.8.157-1.19.258.062.564-.134 1.238-.62 1.543a.882.882 0 0 1-.148.078c-.532.282-1.26.133-1.637-.329-.344-.422-.422-1.049-.43-1.636 1.566-.313 2.983-1.3 3.766-2.71Zm-3.664 1.081c.062-.438.156-.877.274-1.3.195-.673.43-1.456.9-1.996.274-.314.752-.58 1.167-.36.4.203.509.704.446 1.103-.203 1.3-1.542 2.287-2.787 2.553Z" />
    <path d="M26.67 22.669c-.462-.885-.485-1.895-.47-2.874-.532-.063-1.065-.14-1.597-.188-.188 1.77.22 3.634 1.558 4.886 1.167 1.097 2.936 1.465 4.362.713a4.345 4.345 0 0 1-.18 1.002 5.845 5.845 0 0 0-1.88.165c-.79.203-1.691.548-2.153 1.252-.415.635-.392 1.45.188 1.974.618.564 1.511.524 2.255.25 1.026-.383 1.762-1.182 2.318-2.106a4.782 4.782 0 0 1 2.114 1.269c.368-.314.76-.603 1.182-.838a5.938 5.938 0 0 0-2.638-1.707c.101-.227.195-.454.281-.674a19.296 19.296 0 0 0 1.37-6.5c-.5.032-1.002.04-1.503.017.118 1.926-.54 4.314-2.732 4.643-1.05.157-1.99-.36-2.475-1.284Zm2.835 5.082c-.33.391-.775.783-1.253.979-.29.117-.893.11-.783-.368.078-.337.58-.486.861-.58.439-.14.885-.211 1.324-.227-.047.07-.095.133-.15.196Z" />
    <path d="M40.702 19.92c-.642-1.198-1.77-2.028-3.022-2.505-1.629-.627-3.399-.642-5.121-.61.054.516.094 1.025.117 1.542.619-.079 1.292-.11 1.958-.079-.15 2.992-.298 5.99-.447 8.982v.031c1.104.126 2.24.188 3.328-.063.423-.093.83-.242 1.222-.43a5.279 5.279 0 0 0 2.349-3 5.151 5.151 0 0 0-.384-3.867Zm-2.075 5.122a3.851 3.851 0 0 1-2.639 1.15c.063-2.576.126-5.144.18-7.72a5.648 5.648 0 0 1 1.739.689l.008.008a.166.166 0 0 0 .078.047 3.7 3.7 0 0 1 1.597 2.216c.321 1.26-.062 2.662-.963 3.61Zm2.153-7.722c.439.18.838.463 1.222.752a2.96 2.96 0 0 1 3.273-.853c1.394.509 2.052 1.973 2.2 3.359.008.11.024.22.032.329-.971-.478-2.052-.76-3.125-.501-1.072.266-2.043 1.08-2.216 2.216-.188 1.213.494 2.372 1.52 2.991 1.072.658 2.356.697 3.562.462-.023.439-.047.877-.062 1.308a19.304 19.304 0 0 0-.07 2.231c0 .126-.009.25-.009.376.47-.07.94-.172 1.41-.274-.008-3.015.838-5.998.407-9.005-.337-2.357-1.793-5.387-4.55-5.442-1.503-.024-2.772.877-3.594 2.052Zm6.547 7.361c-.768.18-1.567.313-2.342.118-.846-.22-1.652-.948-1.488-1.903.165-.909 1.245-1.206 2.044-1.19.72.015 1.402.282 1.966.728-.04.752-.118 1.503-.18 2.247Zm8.23 1.739c.227-.321.438-.65.627-.995 1.12-2.051 1.495-4.393 1.808-6.68-.454.024-.916.04-1.37.071-.008 1.034-.157 2.099-.767 2.952-.595.83-1.653 1.394-2.678 1.065-1.081-.344-1.7-1.393-1.88-2.458-.195-1.144.07-2.295.36-3.407a9.924 9.924 0 0 1-1.44-.258c-.392 2.012-.69 4.244.509 6.045a3.778 3.778 0 0 0 4.557 1.425 5.516 5.516 0 0 1-.775 1.637 6.3 6.3 0 0 0-.533-.212c-1.535-.524-3.829-.485-4.55 1.277-.281.697-.14 1.558.431 2.067.705.626 1.731.4 2.514.086.87-.352 1.644-.9 2.302-1.558a4.161 4.161 0 0 1 1.269 1.683c.462-.242.932-.47 1.386-.72a5.875 5.875 0 0 0-1.77-2.02Zm-2.952 1.096c-.438.243-1.558.83-1.918.196-.18-.321.07-.713.336-.885.25-.157.564-.212.854-.227a4.155 4.155 0 0 1 1.691.25c-.29.25-.61.478-.963.666Z" />
  </g>
  <defs>
    <clipPath id="a">
      <path fill="#fff" d="M0 0h58v63.356H0z" />
    </clipPath>
  </defs>
</svg>
