<svg width="186" height="48" viewBox="0 0 186 48" fill="none" xmlns="http://www.w3.org/2000/svg">
<g clip-path="url(#clip0_3780_17654)">
<path d="M69.2776 38.1816H66V21.1587L69.2776 28.5259V38.1816Z" fill="white"/>
<path d="M87.7483 36.4548L79.1471 16.4169L78.4271 14.5004L78.5598 21.3694V38.1816H75.4906V10.2H79.7344L89.4913 32.47L99.1535 10.2H103.284V38.1816H100.101V21.2935L100.233 14.5763L99.5324 16.4928L90.9501 36.4548H87.7483Z" fill="white"/>
<path d="M137.38 38.2H134.083V13.2415H127.302L125.927 10.2H146V13.2415H137.38V38.2Z" fill="white"/>
<path d="M112.737 38.1816H109.384V10.2L120.35 10.2L121.659 13.2171H112.737V23.3808C115.175 23.4061 116.823 23.4188 117.682 23.4188C118.92 23.4188 119.981 23.2986 120.865 23.0582C121.749 22.8179 122.425 22.5206 122.892 22.1664C123.372 21.8122 123.745 21.3505 124.01 20.7812C124.288 20.2119 124.458 19.6933 124.521 19.2252C124.585 18.7445 124.616 18.9462 124.616 18.2757H128.026C128.026 19.3763 127.925 19.5288 127.723 20.4017C127.521 21.2619 127.174 22.0715 126.681 22.8305C126.189 23.5895 125.545 24.2221 124.749 24.7281C123.953 25.2214 122.93 25.6136 121.68 25.9045C120.442 26.1828 119.002 26.322 117.36 26.322C116.059 26.322 114.518 26.2398 112.737 26.0753V38.1816Z" fill="white"/>
<path d="M69.2776 20.9561L66 13.5889V10.2H69.2776V20.9561Z" fill="white"/>
<path d="M1.33975 25.6403C1.33975 25.6403 1.33975 25.6144 1.33975 25.6403C2.66131 28.2993 7.69705 28.8087 13.7348 28.8605C20.6362 20.5295 26.6221 3.24607 32.6426 3.6173C32.6598 3.6173 21.9319 -3.52228 11.4976 2.16693C2.89452 6.8547 -2.48673 17.3094 1.33975 25.6403Z" fill="url(#paint0_radial_3780_17654)"/>
<path d="M1.33977 25.6058C1.33977 25.6144 1.33113 25.6144 1.33113 25.623C1.33113 25.6317 1.33113 25.6317 1.33977 25.6403C1.33977 25.6403 1.33977 25.6403 1.33977 25.6317C1.33977 25.6317 1.33977 25.6317 1.33977 25.6403C2.66133 28.2993 7.69707 28.8087 13.7348 28.8605C20.6363 20.5295 26.6221 3.24607 32.6426 3.61729C16.542 -1.76976 1.33977 25.6058 1.33977 25.6058Z" fill="url(#paint1_linear_3780_17654)"/>
<path d="M35.9994 41.6121C35.9994 41.6121 35.977 41.6251 35.9994 41.6121C37.6414 39.1381 35.5646 34.5224 32.5906 29.2677C21.9251 27.4563 3.96424 30.9141 1.27551 25.5146C1.26687 25.4996 0.447798 38.3601 10.5919 44.5518C18.9532 49.6585 30.6978 49.0914 35.9994 41.6121Z" fill="url(#paint2_radial_3780_17654)"/>
<path d="M35.9695 41.6294C35.977 41.625 35.9813 41.6325 35.9888 41.6282C35.9962 41.6239 35.9962 41.6239 35.9994 41.6121C35.9994 41.6121 35.9994 41.6121 35.9919 41.6164C35.9919 41.6164 35.9919 41.6164 35.9994 41.6121C37.6414 39.1381 35.5646 34.5223 32.5906 29.2676C21.9251 27.4563 3.96423 30.914 1.2755 25.5146C4.66046 42.1516 35.9695 41.6294 35.9695 41.6294Z" fill="url(#paint3_linear_3780_17654)"/>
<path d="M32.5544 3.58794C32.5544 3.58794 32.5768 3.60089 32.5544 3.58794C29.5909 3.40295 26.6319 7.50935 23.5682 12.7123C27.3322 22.8546 39.3072 36.6802 35.9755 41.7085C35.9669 41.7234 47.5139 36.0025 47.804 24.1216C48.0458 14.3272 41.6824 4.43958 32.5544 3.58794Z" fill="url(#paint4_radial_3780_17654)"/>
<path d="M32.5843 3.60523C32.5768 3.60091 32.5811 3.59343 32.5737 3.58911C32.5662 3.5848 32.5662 3.5848 32.5544 3.58796C32.5544 3.58796 32.5544 3.58796 32.5619 3.59228C32.5619 3.59228 32.5619 3.59228 32.5544 3.58796C29.5909 3.40297 26.6319 7.50937 23.5682 12.7123C27.3322 22.8546 39.3072 36.6803 35.9755 41.7085C48.6911 30.4585 32.5843 3.60523 32.5843 3.60523Z" fill="url(#paint5_linear_3780_17654)"/>
<path d="M152.345 38.4273C151.562 38.4273 150.943 38.1811 150.488 37.6885C150.046 37.1833 149.825 36.596 149.825 35.9266C149.825 35.2445 150.046 34.6572 150.488 34.1646C150.93 33.6721 151.549 33.4258 152.345 33.4258C153.141 33.4258 153.76 33.6721 154.202 34.1646C154.644 34.6572 154.865 35.2445 154.865 35.9266C154.865 36.6086 154.644 37.1959 154.202 37.6885C153.76 38.1811 153.141 38.4273 152.345 38.4273Z" fill="white"/>
<path d="M162.425 26.017V38.2H159.242L159.242 19.617L162.425 26.017ZM162.425 17.0578V27.209L159.242 20.809V17.0578H162.425Z" fill="white"/>
<path d="M169.928 27.8559C169.928 30.3187 170.471 32.2954 171.557 33.7857C172.656 35.2635 174.254 36.0023 176.35 36.0023C178.422 36.0023 179.981 35.2635 181.03 33.7857C182.091 32.308 182.621 30.3187 182.621 27.818C182.621 25.2793 182.097 23.2837 181.049 21.8312C180.013 20.3661 178.428 19.6336 176.293 19.6336C174.222 19.6336 172.643 20.3788 171.557 21.8691C170.471 23.3595 169.928 25.3551 169.928 27.8559ZM185.899 27.799C185.899 31.0197 185.04 33.6342 183.322 35.6424C181.604 37.638 179.23 38.6357 176.199 38.6357C173.281 38.6357 170.957 37.6253 169.227 35.6045C167.509 33.5837 166.65 30.9881 166.65 27.818C166.65 24.5846 167.515 21.9702 169.246 19.9746C170.976 17.979 173.35 16.9812 176.369 16.9812C179.337 16.9812 181.667 17.9853 183.36 19.9936C185.052 21.9891 185.899 24.5909 185.899 27.799Z" fill="white"/>
</g>
<defs>
<radialGradient id="paint0_radial_3780_17654" cx="0" cy="0" r="1" gradientUnits="userSpaceOnUse" gradientTransform="translate(15.8784 0.542753) rotate(-59.9862) scale(27.5803 27.5876)">
<stop stop-color="#ADF600"/>
<stop offset="0.4908" stop-color="#59EB00"/>
<stop offset="1" stop-color="#1AD300"/>
</radialGradient>
<linearGradient id="paint1_linear_3780_17654" x1="-16.5035" y1="25.3476" x2="33.9626" y2="12.2933" gradientUnits="userSpaceOnUse">
<stop stop-color="#05840A"/>
<stop offset="1" stop-color="#7FEF09"/>
</linearGradient>
<radialGradient id="paint2_radial_3780_17654" cx="0" cy="0" r="1" gradientUnits="userSpaceOnUse" gradientTransform="translate(6.99494 41.57) rotate(-179.986) scale(27.5803 27.5876)">
<stop stop-color="#ADF600"/>
<stop offset="0.4908" stop-color="#59EB00"/>
<stop offset="1" stop-color="#1AD300"/>
</radialGradient>
<linearGradient id="paint3_linear_3780_17654" x1="44.6675" y1="57.2112" x2="8.12912" y2="20.0335" gradientUnits="userSpaceOnUse">
<stop stop-color="#05840A"/>
<stop offset="1" stop-color="#7FEF09"/>
</linearGradient>
<radialGradient id="paint4_radial_3780_17654" cx="0" cy="0" r="1" gradientUnits="userSpaceOnUse" gradientTransform="translate(47.0202 28.7276) rotate(60.0138) scale(27.5803 27.5876)">
<stop stop-color="#ADF600"/>
<stop offset="0.4908" stop-color="#59EB00"/>
<stop offset="1" stop-color="#1AD300"/>
</radialGradient>
<linearGradient id="paint5_linear_3780_17654" x1="41.7295" y1="-11.7184" x2="27.8019" y2="38.5136" gradientUnits="userSpaceOnUse">
<stop stop-color="#05840A"/>
<stop offset="1" stop-color="#7FEF09"/>
</linearGradient>
<clipPath id="clip0_3780_17654">
<rect width="186" height="48" fill="white"/>
</clipPath>
</defs>
</svg>
